<?xml version="1.0" encoding="UTF-8"?>
<!-- Created with Inkscape by VulcanSphere (http://www.inkscape.org/) and (https://vulcansphere.com) -->
<svg width="695.16" height="190.26" version="1.1" viewBox="0 0 695.16 190.26" xml:space="preserve" xmlns="http://www.w3.org/2000/svg" xmlns:cc="http://creativecommons.org/ns#" xmlns:dc="http://purl.org/dc/elements/1.1/" xmlns:rdf="http://www.w3.org/1999/02/22-rdf-syntax-ns#"><title>Danganronpa series wordmark</title><metadata><rdf:RDF><cc:Work rdf:about=""><dc:format>image/svg+xml</dc:format><dc:type rdf:resource="http://purl.org/dc/dcmitype/StillImage"/><dc:title>Danganronpa series wordmark</dc:title></cc:Work></rdf:RDF></metadata><defs><clipPath id="clipPath3"><path d="m162.27-108.98-77.741 125.06 27.585 1.1166 6.5054-1.0134 4.4331-0.67674 3.6019-0.84593 3.1032-1.1279 3.1586-1.2971 3.1032-1.5791 4.7102-3.1581 2.937-2.425 2.9924-2.707 3.9898-4.1168 5.7077-6.7674 3.9898-5.1883 56.859-89.447 0.62694-2.2331 0.11755-0.75767-0.62694-0.8773-0.90122-0.47853-1.4498-0.35889-1.4106-0.15951-8.9731-0.47853z" display="none" fill="#fff" stroke-width="1.0088"/><path class="powerclip" d="m5.031-152.64h279.66v209.06h-279.66zm157.24 43.664-77.741 125.06 27.585 1.1166 6.5054-1.0134 4.4331-0.67674 3.6019-0.84593 3.1032-1.1279 3.1586-1.2971 3.1032-1.5791 4.7102-3.1581 2.937-2.425 2.9924-2.707 3.9898-4.1168 5.7077-6.7674 3.9898-5.1883 56.859-89.447 0.62694-2.2331 0.11755-0.75767-0.62694-0.8773-0.90122-0.47853-1.4498-0.35889-1.4106-0.15951-8.9731-0.47853z" fill="#fff" stroke-width="1.0088"/></clipPath></defs><g transform="translate(-.015229 9.2637)"><path d="m504.77 179.03c-0.94802-1.0822-1.7237-2.1839-1.7237-2.4481 0-0.26425 4.8039-0.32632 10.675-0.13795 7.3162 0.23472 11.495-0.0979 13.279-1.057 1.4321-0.76974 5.825-6.4798 9.762-12.689l7.1583-11.289 17.476 0.33855c19.875 0.38502 23.826-0.35568 30.664-5.7482 5.4804-4.3218 6.3615-4.5194 7.1022-1.5931 0.6582 2.6004-3.8248 6.8319-10.714 10.113-3.9124 1.8634-7.2277 2.2961-20.066 2.6188-8.8144 0.22156-16.678-0.0812-18.422-0.70934-3.0235-1.0889-3.0875-1.0238-9.9691 10.128-3.8094 6.1734-7.9263 11.948-9.1487 12.833-1.6335 1.182-5.1548 1.6083-13.286 1.6083-9.3953 0-11.323-0.29667-12.787-1.9677zm0.35933-8.1188c0-2.1407 49.507-81.327 52.723-84.33 2.5509-2.3822 3.0335-2.4209 30.167-2.4209 42.81 0 42.693-0.18898 21.054 33.893-11.66 18.366-15.29 22.723-22.708 27.261-4.47 2.734-5.4654 2.8832-21.523 3.2266-15.727 0.33631-16.974 0.2176-18.928-1.8013l-2.0921-2.1614-17.343 27.274-10.675 0.30663c-8.7487 0.2513-10.675 0.0262-10.675-1.2473zm64.476-41.62c2.7667-1.2296 6.4174-3.7771 8.1126-5.661 2.9316-3.258 15.939-23.545 15.939-24.86 0-1.2919-19.387-0.62571-21.004 0.72173-1.7437 1.4531-20.656 31.306-20.656 32.605 0 1.4504 12.52-0.54515 17.608-2.8066zm-10.318-1.6175c0-0.41276 3.3979-6.2485 7.5509-12.968l7.5509-12.218 6.5182-0.0182c6.2592-0.0175 6.4665 0.0672 5.2173 2.1337-0.8989 1.487-2.4302 2.1526-4.9559 2.154-3.4655 2e-3 -4.0062 0.54601-10.425 10.491-4.7492 7.3582-7.4692 10.591-9.1131 10.833-1.2888 0.1891-2.3434 6e-3 -2.3434-0.40666zm-234.78 27.961c-0.90016-0.92994-1.6371-2.0194-1.6377-2.4209-5.5e-4 -0.40156 4.7777-0.56075 10.618-0.35373 17.238 0.61097 16.623 1.031 30.463-20.796 8.8272-13.921 12.946-19.445 16.116-21.612 5.3474-3.6558 11.866-5.0353 14.4-3.0476 1.0059 0.78874 2.6881 1.4495 3.7383 1.4683s1.7158 0.63425 1.4792 1.3676c-0.27308 0.84634-2.5546 1.3376-6.2459 1.345-9.3516 0.0185-12.749 3.1841-26.49 24.679-6.4029 10.017-12.73 18.836-14.06 19.598-3.7579 2.154-26.251 1.9731-28.382-0.22824zm61.597-0.47187c-1.5549-1.2636-2.8275-2.6254-2.828-3.0263-5.1e-4 -0.40088 11.741-0.58401 26.092-0.40695l26.093 0.32194 5.9338-2.9603c3.2636-1.6282 6.2853-3.1449 6.7149-3.3705 0.42962-0.22564 0.78112 0.98618 0.78112 2.6929 0 2.615-0.77826 3.5176-4.9471 5.7375-4.7822 2.5464-5.7819 2.6456-29.98 2.9717-24.238 0.32667-25.123 0.26442-27.86-1.96zm66.693 1.0005c-4.1534-2.4992-1.9073-3.6797 7.0012-3.6797 7.5016 0 9.1432-0.32991 10.955-2.2017 1.1721-1.2109 8.3828-12.105 16.024-24.209 12.783-20.25 14.154-22.035 17.166-22.345 3.6105-0.37195 4.2174 0.89252 1.5187 3.1644-0.9648 0.81219-8.4356 11.975-16.602 24.807-8.1662 12.832-15.782 23.847-16.924 24.478-2.6294 1.4538-16.716 1.4435-19.138-0.014zm32.187-0.80552c-0.94803-1.0822-1.7243-2.1716-1.7251-2.4209-2e-3 -0.56373 26.406 0.11085 26.968 0.68891 0.22485 0.23088-0.18405 1.1578-0.90864 2.0597-1.0231 1.2736-3.696 1.64-11.964 1.64-8.9917 0-10.915-0.30588-12.37-1.9677zm122.74 0.92103c-1.1456-0.47848-3.2547-2.2109-4.6867-3.8499-2.2716-2.5998-2.3381-2.8744-0.5208-2.1529 5.8391 2.3182 10.146 2.6518 31.482 2.4387l23.151-0.23117 2.4858-2.6899c3.1752-3.436 22.651-34.605 27.859-44.584 2.1814-4.1803 4.2867-9.6771 4.6786-12.215 0.9619-6.2299 3.0465-5.1944 3.0022 1.4913-0.024 3.5928-1.0541 7.5055-3.2306 12.269-4.1595 9.1032-28.924 48.002-31.449 49.397-2.3326 1.2897-49.715 1.4033-52.772 0.12659zm-283.19-8.4687c-0.56712-0.948 34.394-57.008 38.186-61.23 1.995-2.2216 3.0972-2.4209 13.387-2.4209 11.723 0 13.866 0.82187 10.918 4.1874-2.5144 2.8704-1.9944 4.0301 0.67909 1.5145 1.2889-1.2128 3.4727-2.8082 4.853-3.5453 3.437-1.8355 19.368-2.8106 20.306-1.243 0.72447 1.211-8.5628 17.132-11.426 19.587-1.2464 1.0687-2.2233 0.9535-4.9957-0.58899-4.6984-2.614-11.596-1.4641-18.083 3.0147-3.9797 2.7477-7.3054 7.0742-16.614 21.613-6.4009 9.9977-12.259 18.585-13.019 19.082-1.8057 1.1827-23.487 1.2093-24.193 0.0297zm60.864-1.1736c-0.59298-1.1447-1.0781-2.6377-1.0781-3.3178 0-0.68015 7.5123-13.252 16.694-27.938 14.018-22.421 17.315-27.021 20.57-28.692 3.4303-1.7621 6.608-1.9908 27.659-1.9908h23.783l2.5143 3.0189c1.3829 1.6604 2.5144 4.2883 2.5144 5.8398 0 3.6032-20.366 36.577-26.955 43.642-2.6458 2.8368-7.5802 6.5892-10.965 8.3388l-6.155 3.181h-23.751c-22.416 0-23.812-0.11698-24.83-2.0812zm34.667-11.984c5.899-1.6923 11.32-7.4093 20.09-21.189 4.3208-6.7885 8.1045-13.012 8.4083-13.83 0.80565-2.169-18.67-2.1521-20.413 0.0178-3.5226 4.385-21.742 34.57-21.306 35.299 0.73072 1.2215 8.5364 1.0452 13.221-0.29859zm-7.5762-3.0677c0.0267-0.34136 4.1722-7.1572 9.2124-15.146l9.164-14.526 5.8893-0.32268c3.2391-0.17749 5.8744 0.0645 5.8562 0.53798-0.0884 2.2942-3.1018 4.6266-5.9776 4.6266-2.9096 0-3.8214 1.034-10.821 12.272-6.2415 10.021-8.169 12.355-10.508 12.725-1.5753 0.2493-2.8423 0.17401-2.8157-0.16733zm39.528 16.136c0-1.5285 37.502-60.634 39.438-62.156 2.6107-2.0528 41.705-1.9252 46.517 0.15183 4.326 1.8674 6.1958 5.58 5.2986 10.521-0.53189 2.9291-21.02 36.889-29.876 49.52-2.0718 2.9552-2.091 2.9589-15.062 2.9589-9.207 0-12.988-0.36571-12.988-1.2563 0-0.69099 6.3271-11.262 14.06-23.491s14.06-22.8 14.06-23.491c0-0.83506-2.3835-1.2563-7.1085-1.2563h-7.1085l-13.952 22.215c-18.83 29.983-16.299 27.28-25.544 27.28-4.2546 0-7.7356-0.44845-7.7356-0.99656zm152.49-1.5026c-2.4202-2.1507-2.7154-3.033-2.117-6.3282 0.7853-4.3244 10.335-19.724 16.102-25.964 6.9367-7.5064 10.242-8.623 27.002-9.1217 14.588-0.43405 14.896-0.49355 17.021-3.2809l2.1642-2.8388-16.936-0.53799c-9.8958-0.31433-17.078-0.98527-17.276-1.614-0.1868-0.59179 1.4359-3.4969 3.606-6.4558l3.9458-5.3799h23.541c21.688 0 23.713 0.16128 25.731 2.0497 4.8348 4.5237 2.8266 9.2906-16.814 39.913l-13.802 21.519-10.329 0.31013c-6.9144 0.20761-10.572-0.0959-11.064-0.91807-0.5409-0.9041-1.3013-0.91496-2.8818-0.0411-1.1923 0.65926-7.2455 1.1871-13.614 1.1871-10.496 0-11.705-0.21152-14.279-2.4992zm37.073-13.325c1.7943-1.1737 5.572-5.7193 8.3949-10.101l5.1325-7.9672-8.4304-0.31419c-5.7545-0.21446-8.9454 0.12706-10.053 1.076-1.6617 1.4238-12.757 18.7-12.757 19.864 0 1.5743 14.624-0.53685 17.712-2.557zm-10.422-2.2122c0-0.45174 1.6528-3.3569 3.6729-6.4558 3.5137-5.3902 3.875-5.6345 8.332-5.6345 2.5625 0 4.6591 0.38735 4.6591 0.86078 0 1.6159-2.4959 3.4431-4.7033 3.4431-1.4864 0-2.9658 1.4009-4.5451 4.3039-1.7307 3.1814-3.0031 4.3039-4.8785 4.3039-1.3954 0-2.5371-0.36961-2.5371-0.82134zm-629.37-4.3165c-0.97586-1.114-1.7737-2.2294-1.7729-2.4787 7.6e-4 -0.24929 21.443-0.4794 47.649-0.51135 40.667-0.0496 48.293-0.30591 52.053-1.7498 3.7564-1.4424 4.5835-1.4706 5.6111-0.19139 1.0193 1.2688 17.777 1.4558 108.6 1.2118l107.39-0.28851 6.8191-3.3384c3.7505-1.8361 8.4991-4.8623 10.552-6.7248 2.0534-1.8626 4.0405-3.3865 4.4158-3.3865 0.37533 0-1.179 2.8319-3.4542 6.293-4.5307 6.8926-9.7123 10.003-20.029 12.025-3.2547 0.63768-45.542 1.0497-107.73 1.0497-89.661 0-102.57-0.20062-103.94-1.6158-1.3017-1.3448-2.0568-1.3919-4.5008-0.28132-2.1617 0.98235-15.73 1.424-51.415 1.6736-46.374 0.32438-48.555 0.2512-50.252-1.6864zm106.54-7.8109c0-0.6394 3.6095-6.945 8.0211-14.012l8.0211-12.85h95.147c67.33 0 96.514-0.3558 99.825-1.217 4.6309-1.2047 6.4479-2.9626 11.445-11.073l1.9375-3.1445-3.0544 2.0685c-2.7531 1.8644-5.0847 2.0685-23.633 2.0685-17.811 0-20.812-0.24098-22.314-1.7919-1.1167-1.1529-1.5119-2.6876-1.1083-4.3039 0.75354-3.0177 28.331-46.899 33.473-53.262 2.0641-2.5544 6.2083-5.7949 9.6321-7.5318 5.8206-2.9528 6.6016-3.0596 24.877-3.4009l18.868-0.35247 4.1586 5.4618 2.4074-2.6474c2.305-2.5348 2.9532-2.6474 15.245-2.6474 7.0604 0 12.837 0.26996 12.837 0.59991s-2.7759 4.0069-6.1687 8.1709c-3.3928 4.1641-17.061 24.722-30.373 45.684-26.21 41.271-29.74 45.654-41.338 51.33l-7.0023 3.427-105.45 0.29377c-75.018 0.20897-105.45-0.0418-105.45-0.86879zm227.85-59.706c7.4853-2.2965 10.702-5.4994 20.142-20.057l8.2575-12.733h-28.938l-21.953 34.431h8.5722c4.7147 0 10.978-0.73823 13.919-1.6405zm-15.21-2.4842c0.19094-0.49321 4.0866-6.7876 8.6571-13.988l8.3099-13.091h9.6559c5.3107 0 9.6559 0.40914 9.6559 0.90921 0 2.7135-4.1102 4.4715-10.497 4.4896l-6.6877 0.019-7.1697 11.279c-5.8705 9.2349-7.632 11.279-9.7206 11.279-1.403 0-2.3947-0.40355-2.2038-0.89677zm300.82 48.915c0-0.25068 1.166-2.563 2.5912-5.1385 1.4251-2.5755 2.5968-4.0775 2.6037-3.3377 0.01 0.73973 0.9499 2.3133 2.0956 3.4969 1.6794 1.735 1.7703 2.152 0.469 2.152-0.8877 0-2.9967 0.73872-4.6868 1.6416-1.69 0.90287-3.0727 1.4365-3.0727 1.1858zm-567.95-17.24c0.19094-0.48622 9.955-16.222 21.698-34.968l21.351-34.084 12.767-1e-3c12.507-9.8e-4 12.741 0.0424 11.466 2.1505-1.1547 1.9102-2.4288 2.152-11.342 2.152h-10.041l-20.514 32.817c-17.92 28.667-20.844 32.817-23.123 32.817-1.4352 0-2.4532-0.39782-2.2622-0.88404zm573.16 3.0519c0-0.9226 0.4763-1.3733 1.0584-1.0016 0.5822 0.3717 0.7889 1.1266 0.4593 1.6775-0.8928 1.4924-1.5177 1.2141-1.5177-0.67584zm-147.65-4.7784c-1.2196-2.0176-1.0401-2.152 2.874-2.152 4.3145 0 5.079 0.78742 2.925 3.0127-1.8668 1.9286-4.3342 1.5624-5.799-0.86078zm-347.85-5.8955c2.4382-3.8343 4.7299-6.9815 5.0927-6.9938s0.93019 1.0464 1.2608 2.3527c0.39269 1.5513-0.37794 3.9764-2.2219 6.9919-2.2105 3.6149-3.4461 4.6172-5.6939 4.6187l-2.8708 2e-3zm11.283 4.1859c-3.9536-3.4369-4.2303-5.491-0.389-2.8881 2.3052 1.562 5.0894 1.9055 15.362 1.8951 6.9007-7e-3 13.718-0.0916 15.15-0.18808 1.4321-0.0964 7.3511 0.0612 13.153 0.35037 8.0796 0.40264 11.454 0.13553 14.411-1.1408 3.4146-1.4739 4.0396-1.4819 5.4075-0.0687 2.0676 2.136 16.029 2.1898 19.936 0.0767 1.8257-0.98745 8.4277-10.425 18.818-26.899l16.005-25.378h4.0109c3.224 0 3.8873 0.33283 3.3808 1.6964-0.34656 0.93301-1.6495 2.0968-2.8954 2.5862-1.3842 0.54371-8.4372 10.728-18.133 26.183-8.7275 13.911-16.587 25.579-17.466 25.927-3.1927 1.2657-22.258 0.70245-22.258-0.6576 0-1.0042-0.27774-1.0042-1.2498 0-0.91302 0.94324-9.1706 1.2912-30.644 1.2912h-29.395zm100.6 2.0683c-2.4584-2.5398 0.0377-3.0321 13.808-2.7238l14.506 0.32476 6.8388-6.3127 5.6072 6.2012h18.85c10.367 0 18.85 0.42771 18.85 0.95048 0 1.7522-4.5852 2.248-20.929 2.2627-14.971 0.0136-16.391-0.155-18.142-2.1539l-1.8997-2.1686-2.2345 2.1686c-2.042 1.9819-3.6264 2.1686-18.397 2.1686-8.8896 0-16.475-0.32279-16.857-0.71732zm118.04-5.1085c0-0.3719 1.2625-2.6472 2.8056-5.0561 2.6747-4.1756 2.8459-4.2676 3.6675-1.9729 1.0644 2.9725 0.11582 6.399-1.7714 6.399-0.77378 0-2.1482 0.29389-3.0543 0.65311-0.90609 0.3592-1.6474 0.34882-1.6474-0.023zm99.089-1.4451c0.20563-0.53936 7.3415-11.955 15.857-25.368l15.484-24.387h4.0963c3.4204 0 3.945 0.27936 3.1792 1.693-0.50441 0.93115-1.9643 2.2627-3.2441 2.9589-1.2799 0.69626-8.5715 11.192-16.204 23.323-11.867 18.863-14.287 22.108-16.71 22.409-1.5582 0.19348-2.6648-0.0895-2.4592-0.62887zm-317.25-2.8192c-1.4501-1.4981-2.6365-3.795-2.6365-5.1042 0-5.335 14.587-28.36 21.337-33.679 6.7412-5.312 9.737-6.0017 26.068-6.0017 15.122 0 15.196-0.0118 17.765-2.8766 1.4193-1.5822 2.4128-3.3979 2.2078-4.0349-0.24181-0.75146-6.6524-1.2616-18.253-1.4527-13.413-0.22084-17.88-0.62887-17.88-1.6332 0-1.6629 4.9066-9.4348 7.1044-11.253 1.1994-0.99226 8.2042-1.345 26.712-1.345 28.831 0 29.715 0.22736 29.715 7.6357 0 2.3572-1.0052 6.3243-2.2339 8.8158-2.4177 4.9028-29.425 48.514-31.957 51.604-1.2962 1.5818-3.3688 1.883-12.96 1.883-11.071 0-11.399-0.0681-10.847-2.251 0.55653-2.1986 0.52052-2.2048-1.5468-0.26899-1.7874 1.6738-4.2816 2.0367-16.038 2.3337-13.715 0.34653-13.961 0.31137-16.558-2.372zm40.53-14.622c3.0898-1.9728 12.028-14.259 13.754-18.905 0.48636-1.3094-0.98093-1.5743-8.7186-1.5743-8.3252 0-9.5264 0.25454-11.424 2.4209-2.553 2.9141-12.823 19.498-12.823 20.706 0 1.8134 15.59-0.33545 19.212-2.6481zm-12.322-2.4566c0.41998-0.73974 2.5741-4.129 4.787-7.5318l4.0234-6.1868h5.7261c5.341 0 5.6535 0.14014 4.6466 2.0839-0.65118 1.257-2.4221 2.2176-4.463 2.4209-2.7374 0.2727-3.9801 1.3018-6.508 5.3895-2.4777 4.0065-3.7301 5.0645-6.0501 5.1109-2.0627 0.0412-2.7004-0.33827-2.162-1.2865zm36.484 18.814c-0.68556-1.146 39.127-64.689 42.124-67.232 1.964-1.6667 4.8489-1.883 25.119-1.883 25.494 0 28.712 0.68191 31.079 6.5871 1.0207 2.5459 1.0207 4.1239-2.4e-4 7.6443-1.2058 4.158-28.094 47.994-32.685 53.286-1.9786 2.2809-2.9026 2.4209-15.979 2.4209-9.4279 0-13.879-0.38086-13.879-1.1876 0-0.65319 6.4883-11.426 14.418-23.94 16.083-25.38 17.03-27.026 16.096-27.991-0.36174-0.3737-3.9775-0.67468-8.035-0.66886l-7.3773 0.0108-33.501 53.239-8.4193 0.31106c-4.6306 0.17108-8.6634-0.097-8.9618-0.5959zm166.25-1.2927c-4.8831-4.6999-3.9145-8.7322 5.6149-23.376 6.9844-10.733 15.172-18.786 20.903-20.56 2.3609-0.73077 10.351-1.2907 18.417-1.2907 13.851 0 14.32-0.0756 16.88-2.7205 4.6906-4.8458 3.3273-5.3239-16.093-5.6437-13.275-0.21857-17.879-0.63427-17.875-1.614 3e-3 -0.72575 1.7797-3.7405 3.9486-6.6994l3.9433-5.3799 51.526-0.57571 2.691 2.7801c4.7555 4.913 3.2356 8.6053-16.809 40.835-7.3612 11.836-14.321 22.609-15.466 23.94-1.917 2.2291-2.9756 2.4209-13.357 2.4209-9.5104 0-11.275-0.26214-11.275-1.675 0-1.516-0.21972-1.516-2.3147 0-1.7974 1.3006-5.2449 1.675-15.426 1.675-11.597 0-13.365-0.24442-15.309-2.1156zm39.443-14.713c3.4128-2.0504 14.31-16.802 14.395-19.486 0.0457-1.4525-14.849-1.9801-18.216-0.64521-1.5481 0.61374-15.069 20.893-15.069 22.601 0 1.5681 15.554-0.46615 18.891-2.4706zm-7.8106-8.9948 4.8478-7.5318h5.6121c5.2893 0 5.548 0.12375 4.4973 2.152-0.73524 1.4193-2.1807 2.1519-4.2457 2.1519-2.6311 0-3.6476 0.85878-6.368 5.3799-2.6603 4.4212-3.7677 5.3799-6.2143 5.3799h-2.9771zm32.968 24.403c1.3129-3.5347 39.694-63.894 42.029-66.096 2.4991-2.3572 3.1712-2.4209 25.524-2.4209 25.671 0 28.762 0.66398 31.181 6.6993 2.0548 5.125-0.0124 9.5204-17.794 37.834l-15.955 25.405h-14.419c-10.29 0-14.419-0.35943-14.419-1.255 0-0.69023 6.4922-11.463 14.427-23.94 16.005-25.166 17.031-26.948 16.087-27.924-0.36174-0.3737-3.9775-0.67599-8.035-0.67174l-7.3773 8e-3 -33.569 53.245-9.1202 0.31281c-7.4797 0.25654-9.0194 0.0414-8.5599-1.1956zm70.134 0.0759c0.42984-0.73973 7.0864-11.271 14.792-23.402 15.653-24.642 17.821-28.865 17.854-34.764 0.0276-4.9472 1.7466-4.3544 2.7068 0.93345 1.2012 6.6146-1.1098 11.773-15.844 35.37-13.105 20.987-14.71 23.127-17.365 23.166-2.0694 0.0299-2.6969-0.35133-2.144-1.3027zm-347.02-46.679c1.015-1.7751 2.6549-4.3362 3.6443-5.6912l1.7989-2.4638 3.0368 2.9785c1.6702 1.6382 2.2737 2.6956 1.3411 2.35-0.93264-0.34567-2.1043-0.25963-2.6037 0.19121-0.49943 0.45083-2.7429 1.9544-4.9854 3.3413l-4.0774 2.5216zm232.37-2.2783c1.5984-2.2192 3.0072-4.182 3.1306-4.3619 0.12345-0.17984 1.8005 0.66568 3.7268 1.8789 2.386 1.5028 2.9054 2.2072 1.6294 2.2099-1.0301 2e-3 -3.813 0.9724-6.1842 2.156s-4.5132 2.152-4.76 2.152 0.85904-1.8157 2.4574-4.0349zm-83.896-11.029c0-2.0085 0.27774-2.2954 1.2498-1.2912 0.97207 1.0042 0.97207 1.5781 0 2.5823-0.97206 1.0042-1.2498 0.71731-1.2498-1.2912zm159.35-1.076c0-1.9626 0.43222-3.079 1.0415-2.6899 0.57282 0.36574 1.0415 1.5762 1.0415 2.6899s-0.46867 2.3242-1.0415 2.6899c-0.60928 0.38902-1.0415-0.72732-1.0415-2.6899zm-230.17-1.0125c0-2.598 0.57919-2.8601 1.4053-0.63595 0.32267 0.86873 0.13848 1.8657-0.40932 2.2154-0.54782 0.34977-0.99602-0.36101-0.99602-1.5795zm-68.274-8.2634c-0.0504-5.2944 0.0721-5.6237 1.265-3.4037 1.7034 3.1699 1.7439 6.7372 0.0927 8.1508-1.0133 0.86743-1.3142-0.18496-1.3576-4.7471z" stroke-width="1.0586"/><g transform="matrix(.61759 0 0 .63499 19.785 -67.584)"><path transform="translate(-40.124,239.49)" d="m146.39-147.33c-3.0915 0.39986-6.2348 0.9448-9.0906 2.1943-1.3806 0.60405-3.7616 2.5078-3.7616 2.5078l-123.51 189.65 0.31347 3.4482 2.351 0.78367 140.59 0.15674s6.0882 0.06703 8.907-0.36725c2.6146-0.40283 4.9254-1.1881 7.3934-2.1405 2.6768-1.0329 5.1043-2.753 7.2098-4.7021 4.0394-3.7392 10.06-13.095 10.06-13.095l89.549-140.09s1.366-3.1379 1.8841-4.7656c0.519-1.6308 1.0145-3.2882 1.2191-4.9873 0.22972-1.9072 0.24367-3.8576 0-5.7631-0.24208-1.8931-0.81096-3.7398-1.4408-5.5414-0.48026-1.3738-1.0976-2.7008-1.7732-3.9898-0.64265-1.2262-1.3191-2.4477-2.1612-3.5465-0.63575-0.82965-1.3782-1.5795-2.1612-2.272-0.99897-0.88357-2.0894-1.666-3.214-2.3828-1.0455-0.66638-2.1321-1.2798-3.2694-1.7733-1.3396-0.58123-2.7488-0.99555-4.1561-1.3854-1.6412-0.45458-3.301-0.87038-4.9873-1.1083-1.4843-0.20942-4.4886-0.27707-4.4886-0.27707l-43.713-0.86873-54.074 0.15674s-5.1406-0.17172-7.68 0.15673z" clip-path="url(#clipPath3)"/></g></g><g transform="translate(-514.15 141.27)"/></svg>
