<?xml version="1.0" encoding="UTF-8" standalone="no"?>
<!-- Created with Inkscape (http://www.inkscape.org/) -->

<svg
   width="211.69794mm"
   height="151.32634mm"
   viewBox="0 0 211.69794 151.32634"
   version="1.1"
   id="svg5"
   xml:space="preserve"
   inkscape:version="1.2.1 (9c6d41e410, 2022-07-14)"
   sodipodi:docname="Persona 3 Reload 2023.svg"
   xmlns:inkscape="http://www.inkscape.org/namespaces/inkscape"
   xmlns:sodipodi="http://sodipodi.sourceforge.net/DTD/sodipodi-0.dtd"
   xmlns="http://www.w3.org/2000/svg"
   xmlns:svg="http://www.w3.org/2000/svg"><sodipodi:namedview
     id="namedview7"
     pagecolor="#ffffff"
     bordercolor="#000000"
     borderopacity="0.25"
     inkscape:showpageshadow="2"
     inkscape:pageopacity="0.0"
     inkscape:pagecheckerboard="0"
     inkscape:deskcolor="#d1d1d1"
     inkscape:document-units="mm"
     showgrid="false"
     inkscape:zoom="0.73851712"
     inkscape:cx="90.045306"
     inkscape:cy="412.98975"
     inkscape:window-width="1920"
     inkscape:window-height="1009"
     inkscape:window-x="-8"
     inkscape:window-y="-8"
     inkscape:window-maximized="1"
     inkscape:current-layer="svg5" /><defs
     id="defs2" /><g
     inkscape:label="Layer 1"
     inkscape:groupmode="layer"
     id="layer1"
     transform="translate(9.4752624,-14.931905)" /><path
     id="path55"
     style="fill:#040404;stroke-width:0.724113"
     d="m 107.88577,0 v 13.724128 h 73.03614 v 21.027826 h -60.85917 v 13.440193 h 60.85917 V 68.894646 H 107.78892 V 82.66099 h 74.93593 V 71.685164 h 12.01224 V 46.740182 h -12.2672 V 36.703084 h 12.2672 V 11.373171 H 182.45664 V 0 Z M 28.790123,0.0149 V 11.37317 H 17.325066 V 83.1734 h 13.772969 l 0.25579,-34.981253 h 60.26564 V 36.702255 h 12.479945 l -8.3e-4,-24.815847 H 91.740321 V 0.014901 Z m 2.553769,13.796148 H 89.704758 V 34.649305 H 31.343892 Z M 3.6862012,88.898475 v 3.18622 H 0 v 19.849865 h 3.8078892 v -9.97419 H 20.588261 v -3.290515 h 3.668819 v -6.60172 h -3.755737 v -3.16966 z m 26.3497648,0 v 3.28969 H 26.732208 V 108.5803 h 3.692825 v 3.37163 h 20.425185 v -3.34514 H 30.770226 l 0.09685,-6.64643 H 47.122621 V 98.524995 H 30.770226 v -6.19279 h 20.201678 v -3.43373 z m 26.751248,0 v 3.01403 h -3.445313 v 19.987275 h 4.014013 V 92.279225 h 16.487331 v 6.14725 H 63.72916 v 3.169655 h -3.530576 v 7.11744 h 3.445312 v 3.56452 h 13.937701 v -3.67131 H 64.383951 v -6.64642 h 10.096701 v -3.290505 h 3.30707 v -6.60172 h -3.961035 v -3.16966 z m 26.886178,0 v 3.06204 h -3.376604 v 6.32028 h 3.376604 v 3.679565 h 16.652888 l -8.2e-4,6.58518 H 80.296788 v 3.95108 h 20.696702 v -3.95605 h 3.57694 v -6.36 h -3.25492 v -3.752435 c -5.741191,2e-5 -11.482033,-3e-5 -17.22325,0 0,-2.03173 -8.05e-4,-4.0642 -8.27e-4,-6.09593 H 103.8312 v -3.43373 z m 26.664328,0 v 3.01403 h -3.41303 v 16.788665 h 3.61998 v 3.47014 h 17.17109 v -3.63074 h 3.40971 V 91.944785 h -3.3766 v -3.04631 z m 26.83734,0 v 2.9983 h -3.45028 v 19.812605 h 3.89233 V 92.332205 h 5.97093 V 108.75 h 3.98421 v 3.44613 h 6.89476 v -3.48505 h 3.26486 V 88.898475 h -3.69863 V 108.24173 H 147.5292 V 91.944785 h -2.96352 v -3.04631 z m 26.82905,0 v 3.01403 h -3.57113 V 111.7276 h 4.01898 V 92.365305 h 16.33253 v 5.9577 h -13.40376 v 3.499955 h 13.40376 v 10.00812 h 3.92793 V 91.912505 h -3.89233 v -3.01403 z m 23.79185,0 v 3.43373 h 20.20915 v 6.00817 h -16.83254 v 3.963535 h 16.8226 v 5.49992 h -20.32088 v 3.89314 h 20.31756 v -2.98588 h 3.45939 v -6.91959 h -3.44697 v -2.987545 h 3.46354 v -6.89145 h -3.47926 v -3.01403 z m -76.90775,3.28969 h 16.43767 V 108.2972 H 110.88821 Z M 3.858384,92.394285 h 16.609847 v 6.08683 H 3.858384 Z" /><path
     id="rect485"
     style="opacity:1;fill:#000000;fill-opacity:1;stroke:none;stroke-width:1.37186;stroke-linecap:round;stroke-linejoin:round"
     d="m 157.52077,116.91709 c -2.14852,0.007 -3.63997,0.13098 -5.65553,1.29468 -1.60459,0.92641 -2.61587,1.81685 -2.61587,3.4776 v 4.67957 15.50473 4.67955 c 0,1.66077 1.01128,2.5512 2.61587,3.4776 2.14994,1.24133 3.70345,1.29949 6.09428,1.29468 0.34153,0 0.69954,-0.003 1.07945,-0.003 3.86412,0 5.94912,-0.32093 7.44358,-1.18376 2.15358,-1.24335 2.34682,-1.92444 2.34682,-3.58521 v -4.67955 -15.50472 -4.67958 c 0,-1.66076 -0.19324,-2.34184 -2.34682,-3.5852 -1.49446,-0.86283 -3.57946,-1.18376 -7.44358,-1.18376 -0.37991,0 -0.73792,-0.003 -1.07945,-0.003 -0.14946,-3.1e-4 -0.2955,-4.6e-4 -0.43875,0 z m 16.99809,0 -5.41631,34.40924 h 8.5396 l 0.40563,-3.17296 h 5.6481 l 0.40561,3.17296 h 15.68851 3.4569 c 4.26906,0 8.45104,-1.67996 8.45104,-5.59429 v -4.61913 -13.98323 h -7.81198 v 13.98323 c 0,2.18622 -1.61909,2.15063 -4.09596,2.15063 v -18.41776 c 2.47687,0 4.09596,0.24359 4.09596,2.2839 l 7.81198,-8.3e-4 v -5.52806 c 0,-2.37196 -3.75081,-4.6837 -8.45104,-4.6837 h -11.11655 v 31.16425 l -4.90556,-31.16425 z M 0,117.009 v 25.27691 l 6.8359889,9.02885 H 137.66511 148.51595 v -8.74158 H 137.66511 V 117.009 Z m 159.03897,8.19442 c 0.79225,0 2.13076,0.0975 2.13076,1.16555 v 15.50472 c 0,1.06796 -1.33851,1.16553 -2.13076,1.16553 -0.67861,0 -2.12995,-0.34493 -2.12995,-1.16553 v -15.50478 c 0,-0.82063 1.45134,-1.16555 2.12995,-1.16555 z m 21.83327,0.88161 1.66884,12.79449 c 0.0238,0.33913 -0.17277,0.51967 -0.45361,0.53145 h -2.40313 c -0.3145,-0.0144 -0.50833,-0.1517 -0.48179,-0.53145 z"
     sodipodi:nodetypes="sssccsccsssccssssscccccccsscccsccccsccccccccccccccssssssscccccc" /><path
     id="path2595"
     style="opacity:1;fill:#0fb1f5;fill-opacity:1;stroke:none;stroke-width:0.903837;stroke-linecap:round;stroke-linejoin:round;stroke-opacity:1"
     d="m 0,117.00897 v 25.27692 l 6.8359889,9.02885 c 28.2876471,0 56.5752961,0 84.8629431,0 v -10.30365 l 8.22504,10.30366 h 28.092288 v -8.74159 h -11.83095 v -5.50157 h 6.93615 v -7.03715 h -6.93615 v -5.55703 h 11.83095 v -7.46844 H 107.0886 v 27.67508 l -6.18368,-7.94524 c 1.37742,-0.29885 3.4362,-1.36043 3.4362,-5.13155 v -8.5007 c 0,-2.36344 -1.01262,-6.09759 -4.878232,-6.09759 H 82.602217 v 12.28955 l -9.466743,-12.28955 z m 91.698932,7.03879 h 2.347648 c 0.905453,0 1.560404,0.78738 1.560404,1.91058 v 3.9809 c 0,0.91671 -0.571649,1.88408 -1.560404,1.88408 l -2.347648,-8.4e-4 z"
     sodipodi:nodetypes="cccccccccccccccccccssccccccsssccc" /></svg>
